<svg xmlns="http://www.w3.org/2000/svg" viewBox="0 0 120 120">
  <rect width="120" height="120" rx="20" fill="#111827"/>
  <g transform="translate(20,20)" fill="none" stroke="#fff" stroke-width="6" stroke-linecap="round" stroke-linejoin="round">
    <path d="M40 8c-22 0-40 10-40 32 0 22 16 32 34 36 2 0 4-2 4-4v-4c-14 2-18-6-18-6-2-6-6-8-6-8-6-4 0-4 0-4 6 0 10 6 10 6 6 10 18 6 22 4 0-4 2-6 4-8-12-2-24-6-24-26 0-8 4-14 10-18-2-4-4-12 0-26 0 0 8-2 26 10 8-2 18-4 28-2 0 0 4 18-2 26 6 4 10 10 10 18 0 20-12 24-24 26 2 2 4 6 4 12v6c0 2 2 4 4 4 18-4 34-14 34-36 0-22-18-32-40-32z"/>
  </g>
</svg>
